STARTFONT 2.3
FONT -FontForge-Zen Loop-Book-R-Normal--8-80-72-72-P-24-ISO10646-1
SIZE 8 72 72  4
FONTBOUNDINGBOX 7 10 -1 -2
COMMENT "Generated by fontforge, http://fontforge.sourceforge.net"
COMMENT "Copyright 2021 The Zen-Loop Project Authors (https://github.com/googlefonts/zen-loop)"
STARTPROPERTIES 40
FOUNDRY "FontForge"
FAMILY_NAME "Zen Loop"
WEIGHT_NAME "Book"
SLANT "R"
SETWIDTH_NAME "Normal"
ADD_STYLE_NAME ""
PIXEL_SIZE 8
POINT_SIZE 80
RESOLUTION_X 72
RESOLUTION_Y 72
SPACING "P"
AVERAGE_WIDTH 24
CHARSET_REGISTRY "ISO10646"
CHARSET_ENCODING "1"
FONTNAME_REGISTRY ""
CHARSET_COLLECTIONS "ISO10646-1"
BITS_PER_PIXEL 4
FONT_NAME "ZenLoop-Regular"
FACE_NAME "Zen Loop Regular"
COPYRIGHT "Copyright 2021 The Zen-Loop Project Authors (https://github.com/googlefonts/zen-loop)"
FONT_VERSION "1.000; ttfautohint (v1.8.3)"
FONT_ASCENT 6
FONT_DESCENT 2
UNDERLINE_POSITION -1
UNDERLINE_THICKNESS 1
X_HEIGHT 3
CAP_HEIGHT 5
RAW_ASCENT 800
RAW_DESCENT 200
NORM_SPACE 2
RELATIVE_WEIGHT 40
RELATIVE_SETWIDTH 50
SUPERSCRIPT_X 0
SUPERSCRIPT_Y 2
SUPERSCRIPT_SIZE 4
SUBSCRIPT_X 0
SUBSCRIPT_Y 0
SUBSCRIPT_SIZE 4
AVG_LOWERCASE_WIDTH 21
AVG_UPPERCASE_WIDTH 29
ENDPROPERTIES
CHARS 248
STARTCHAR CR
ENCODING 13
SWIDTH 600 0
DWIDTH 5 0
BBX 1 1 0 0
BITMAP
00
ENDCHAR
STARTCHAR space
ENCODING 32
SWIDTH 240 0
DWIDTH 2 0
BBX 1 1 0 0
BITMAP
00
ENDCHAR
STARTCHAR exclam
ENCODING 33
SWIDTH 141 0
DWIDTH 1 0
BBX 1 6 0 0
BITMAP
20
20
20
20
10
20
ENDCHAR
STARTCHAR quotedbl
ENCODING 34
SWIDTH 195 0
DWIDTH 2 0
BBX 2 2 0 4
BITMAP
22
11
ENDCHAR
STARTCHAR numbersign
ENCODING 35
SWIDTH 454 0
DWIDTH 4 0
BBX 4 6 0 0
BITMAP
0220
0330
1551
0230
4350
3020
ENDCHAR
STARTCHAR dollar
ENCODING 36
SWIDTH 356 0
DWIDTH 3 0
BBX 3 8 0 -1
BITMAP
0100
3520
3300
2400
0420
1330
3520
0200
ENDCHAR
STARTCHAR percent
ENCODING 37
SWIDTH 470 0
DWIDTH 4 0
BBX 4 6 0 0
BITMAP
3310
3330
2230
0331
0423
2132
ENDCHAR
STARTCHAR ampersand
ENCODING 38
SWIDTH 520 0
DWIDTH 4 0
BBX 4 6 0 0
BITMAP
0330
0330
0420
1512
3050
3342
ENDCHAR
STARTCHAR quotesingle
ENCODING 39
SWIDTH 121 0
DWIDTH 1 0
BBX 1 2 0 4
BITMAP
20
10
ENDCHAR
STARTCHAR parenleft
ENCODING 40
SWIDTH 233 0
DWIDTH 2 0
BBX 2 7 0 -1
BITMAP
01
12
30
30
30
21
03
ENDCHAR
STARTCHAR parenright
ENCODING 41
SWIDTH 233 0
DWIDTH 2 0
BBX 2 7 0 -1
BITMAP
30
21
02
03
12
30
10
ENDCHAR
STARTCHAR asterisk
ENCODING 42
SWIDTH 313 0
DWIDTH 3 0
BBX 2 2 0 4
BITMAP
14
25
ENDCHAR
STARTCHAR plus
ENCODING 43
SWIDTH 577 0
DWIDTH 5 0
BBX 4 4 0 0
BITMAP
0020
0030
1353
0020
ENDCHAR
STARTCHAR comma
ENCODING 44
SWIDTH 145 0
DWIDTH 1 0
BBX 1 2 0 -1
BITMAP
10
30
ENDCHAR
STARTCHAR hyphen
ENCODING 45
SWIDTH 286 0
DWIDTH 2 0
BBX 2 1 0 2
BITMAP
22
ENDCHAR
STARTCHAR period
ENCODING 46
SWIDTH 181 0
DWIDTH 1 0
BBX 1 1 0 0
BITMAP
20
ENDCHAR
STARTCHAR slash
ENCODING 47
SWIDTH 292 0
DWIDTH 2 0
BBX 3 7 0 -1
BITMAP
0120
0300
0300
0200
2000
3000
3000
ENDCHAR
STARTCHAR zero
ENCODING 48
SWIDTH 378 0
DWIDTH 3 0
BBX 3 6 0 0
BITMAP
2320
3020
3030
3030
3030
2320
ENDCHAR
STARTCHAR one
ENCODING 49
SWIDTH 303 0
DWIDTH 2 0
BBX 3 6 0 0
BITMAP
2300
0300
0300
0300
0300
2510
ENDCHAR
STARTCHAR two
ENCODING 50
SWIDTH 343 0
DWIDTH 3 0
BBX 3 6 0 0
BITMAP
2320
0030
0120
0300
2100
4310
ENDCHAR
STARTCHAR three
ENCODING 51
SWIDTH 377 0
DWIDTH 3 0
BBX 3 6 0 0
BITMAP
2320
0030
1430
2340
0030
2220
ENDCHAR
STARTCHAR four
ENCODING 52
SWIDTH 389 0
DWIDTH 3 0
BBX 3 6 0 0
BITMAP
0200
0300
1220
3020
3340
0020
ENDCHAR
STARTCHAR five
ENCODING 53
SWIDTH 372 0
DWIDTH 3 0
BBX 3 7 0 0
BITMAP
0010
2310
2000
4210
3030
0030
2220
ENDCHAR
STARTCHAR six
ENCODING 54
SWIDTH 360 0
DWIDTH 3 0
BBX 3 6 0 0
BITMAP
0300
2100
3310
3030
3030
2320
ENDCHAR
STARTCHAR seven
ENCODING 55
SWIDTH 321 0
DWIDTH 3 0
BBX 3 6 0 0
BITMAP
2320
0200
0200
0200
2000
2000
ENDCHAR
STARTCHAR eight
ENCODING 56
SWIDTH 377 0
DWIDTH 3 0
BBX 3 6 0 0
BITMAP
2220
3030
1420
2320
3030
2220
ENDCHAR
STARTCHAR nine
ENCODING 57
SWIDTH 360 0
DWIDTH 3 0
BBX 3 6 0 0
BITMAP
3320
3030
3030
1330
0210
0300
ENDCHAR
STARTCHAR colon
ENCODING 58
SWIDTH 181 0
DWIDTH 1 0
BBX 1 4 0 0
BITMAP
20
00
00
20
ENDCHAR
STARTCHAR semicolon
ENCODING 59
SWIDTH 165 0
DWIDTH 1 0
BBX 1 5 0 -1
BITMAP
20
00
00
10
30
ENDCHAR
STARTCHAR less
ENCODING 60
SWIDTH 482 0
DWIDTH 4 0
BBX 4 4 0 0
BITMAP
0011
1320
2310
0021
ENDCHAR
STARTCHAR equal
ENCODING 61
SWIDTH 577 0
DWIDTH 5 0
BBX 4 2 0 1
BITMAP
2333
2333
ENDCHAR
STARTCHAR greater
ENCODING 62
SWIDTH 482 0
DWIDTH 4 0
BBX 4 4 0 0
BITMAP
2200
0131
0231
2100
ENDCHAR
STARTCHAR question
ENCODING 63
SWIDTH 300 0
DWIDTH 2 0
BBX 2 6 0 0
BITMAP
34
03
03
20
01
01
ENDCHAR
STARTCHAR at
ENCODING 64
SWIDTH 748 0
DWIDTH 6 0
BBX 6 6 0 0
BITMAP
033330
301303
303403
323303
313331
033330
ENDCHAR
STARTCHAR A
ENCODING 65
SWIDTH 414 0
DWIDTH 3 0
BBX 4 6 0 0
BITMAP
0500
0410
1220
3330
2020
2011
ENDCHAR
STARTCHAR B
ENCODING 66
SWIDTH 375 0
DWIDTH 3 0
BBX 3 6 0 0
BITMAP
3310
2020
3430
2340
2030
3320
ENDCHAR
STARTCHAR C
ENCODING 67
SWIDTH 366 0
DWIDTH 3 0
BBX 3 6 0 0
BITMAP
1310
3000
3000
3000
3000
1320
ENDCHAR
STARTCHAR D
ENCODING 68
SWIDTH 396 0
DWIDTH 3 0
BBX 3 6 0 0
BITMAP
3320
2030
2030
2030
2030
3320
ENDCHAR
STARTCHAR E
ENCODING 69
SWIDTH 309 0
DWIDTH 2 0
BBX 2 6 0 0
BITMAP
33
20
33
20
20
33
ENDCHAR
STARTCHAR F
ENCODING 70
SWIDTH 299 0
DWIDTH 2 0
BBX 2 6 0 0
BITMAP
33
20
33
20
20
20
ENDCHAR
STARTCHAR G
ENCODING 71
SWIDTH 382 0
DWIDTH 3 0
BBX 3 6 0 0
BITMAP
1320
3000
3000
3130
3030
1330
ENDCHAR
STARTCHAR H
ENCODING 72
SWIDTH 425 0
DWIDTH 3 0
BBX 3 6 0 0
BITMAP
2020
2030
3350
2030
2030
2020
ENDCHAR
STARTCHAR I
ENCODING 73
SWIDTH 141 0
DWIDTH 1 0
BBX 1 6 0 0
BITMAP
20
20
20
20
20
20
ENDCHAR
STARTCHAR J
ENCODING 74
SWIDTH 142 0
DWIDTH 1 0
BBX 2 8 -1 -2
BITMAP
02
03
03
03
03
03
03
22
ENDCHAR
STARTCHAR K
ENCODING 75
SWIDTH 401 0
DWIDTH 3 0
BBX 3 6 0 0
BITMAP
2030
3120
5600
5230
3030
2030
ENDCHAR
STARTCHAR L
ENCODING 76
SWIDTH 347 0
DWIDTH 3 0
BBX 3 6 0 0
BITMAP
2000
2000
2000
2000
2000
3310
ENDCHAR
STARTCHAR M
ENCODING 77
SWIDTH 534 0
DWIDTH 4 0
BBX 4 6 0 0
BITMAP
3324
2243
2232
2142
3122
2002
ENDCHAR
STARTCHAR N
ENCODING 78
SWIDTH 422 0
DWIDTH 3 0
BBX 3 6 0 0
BITMAP
4020
3220
2320
2230
2050
2040
ENDCHAR
STARTCHAR O
ENCODING 79
SWIDTH 446 0
DWIDTH 4 0
BBX 4 6 0 0
BITMAP
1330
3011
3003
3003
3011
1330
ENDCHAR
STARTCHAR P
ENCODING 80
SWIDTH 341 0
DWIDTH 3 0
BBX 3 6 0 0
BITMAP
3320
2030
2030
3300
2000
2000
ENDCHAR
STARTCHAR Q
ENCODING 81
SWIDTH 446 0
DWIDTH 4 0
BBX 4 8 0 -2
BITMAP
1330
3011
3003
3003
3351
1550
0410
0410
ENDCHAR
STARTCHAR R
ENCODING 82
SWIDTH 380 0
DWIDTH 3 0
BBX 3 6 0 0
BITMAP
3320
2030
5230
5510
2030
2030
ENDCHAR
STARTCHAR S
ENCODING 83
SWIDTH 356 0
DWIDTH 3 0
BBX 3 6 0 0
BITMAP
2320
3000
2200
0220
1030
3320
ENDCHAR
STARTCHAR T
ENCODING 84
SWIDTH 377 0
DWIDTH 3 0
BBX 3 6 0 0
BITMAP
2520
0300
0300
0300
0300
0200
ENDCHAR
STARTCHAR U
ENCODING 85
SWIDTH 412 0
DWIDTH 3 0
BBX 3 6 0 0
BITMAP
2020
2020
2020
2020
2020
2230
ENDCHAR
STARTCHAR V
ENCODING 86
SWIDTH 384 0
DWIDTH 3 0
BBX 3 6 0 0
BITMAP
2020
2020
2020
1120
0500
0400
ENDCHAR
STARTCHAR W
ENCODING 87
SWIDTH 534 0
DWIDTH 4 0
BBX 4 6 0 0
BITMAP
2002
3002
2232
2132
2232
3214
ENDCHAR
STARTCHAR X
ENCODING 88
SWIDTH 318 0
DWIDTH 3 0
BBX 3 6 0 0
BITMAP
3120
2300
0400
1400
3200
2030
ENDCHAR
STARTCHAR Y
ENCODING 89
SWIDTH 370 0
DWIDTH 3 0
BBX 3 6 0 0
BITMAP
3030
3030
0500
0300
0300
0200
ENDCHAR
STARTCHAR Z
ENCODING 90
SWIDTH 309 0
DWIDTH 2 0
BBX 3 6 0 0
BITMAP
2320
0200
0200
1100
3000
4310
ENDCHAR
STARTCHAR bracketleft
ENCODING 91
SWIDTH 193 0
DWIDTH 2 0
BBX 2 8 0 -1
BITMAP
21
20
20
20
20
20
20
21
ENDCHAR
STARTCHAR backslash
ENCODING 92
SWIDTH 292 0
DWIDTH 2 0
BBX 3 7 0 -1
BITMAP
3000
3000
2000
0300
0300
0300
0120
ENDCHAR
STARTCHAR bracketright
ENCODING 93
SWIDTH 193 0
DWIDTH 2 0
BBX 2 8 0 -1
BITMAP
30
11
11
11
11
11
11
30
ENDCHAR
STARTCHAR asciicircum
ENCODING 94
SWIDTH 416 0
DWIDTH 3 0
BBX 4 4 0 3
BITMAP
0100
0410
2130
3021
ENDCHAR
STARTCHAR underscore
ENCODING 95
SWIDTH 556 0
DWIDTH 4 0
BBX 4 1 0 -1
BITMAP
1222
ENDCHAR
STARTCHAR grave
ENCODING 96
SWIDTH 201 0
DWIDTH 2 0
BBX 1 1 0 4
BITMAP
20
ENDCHAR
STARTCHAR a
ENCODING 97
SWIDTH 315 0
DWIDTH 3 0
BBX 3 4 0 0
BITMAP
2300
0300
3300
3510
ENDCHAR
STARTCHAR b
ENCODING 98
SWIDTH 298 0
DWIDTH 2 0
BBX 2 6 0 0
BITMAP
20
20
34
22
22
33
ENDCHAR
STARTCHAR c
ENCODING 99
SWIDTH 275 0
DWIDTH 2 0
BBX 2 4 0 0
BITMAP
33
30
30
23
ENDCHAR
STARTCHAR d
ENCODING 100
SWIDTH 298 0
DWIDTH 2 0
BBX 2 6 0 0
BITMAP
02
02
25
22
22
25
ENDCHAR
STARTCHAR e
ENCODING 101
SWIDTH 285 0
DWIDTH 2 0
BBX 2 4 0 0
BITMAP
23
43
30
33
ENDCHAR
STARTCHAR f
ENCODING 102
SWIDTH 178 0
DWIDTH 1 0
BBX 2 6 0 0
BITMAP
22
30
51
30
30
20
ENDCHAR
STARTCHAR g
ENCODING 103
SWIDTH 302 0
DWIDTH 2 0
BBX 3 6 0 -2
BITMAP
3400
3200
3300
3300
3210
4220
ENDCHAR
STARTCHAR h
ENCODING 104
SWIDTH 307 0
DWIDTH 2 0
BBX 3 6 0 0
BITMAP
2000
2000
4400
2210
2210
2210
ENDCHAR
STARTCHAR i
ENCODING 105
SWIDTH 141 0
DWIDTH 1 0
BBX 1 5 0 0
BITMAP
20
20
20
20
20
ENDCHAR
STARTCHAR j
ENCODING 106
SWIDTH 141 0
DWIDTH 1 0
BBX 2 7 -1 -2
BITMAP
02
02
02
02
02
02
12
ENDCHAR
STARTCHAR k
ENCODING 107
SWIDTH 287 0
DWIDTH 2 0
BBX 2 6 0 0
BITMAP
20
20
23
43
23
22
ENDCHAR
STARTCHAR l
ENCODING 108
SWIDTH 141 0
DWIDTH 1 0
BBX 1 6 0 0
BITMAP
20
20
20
20
20
20
ENDCHAR
STARTCHAR m
ENCODING 109
SWIDTH 407 0
DWIDTH 3 0
BBX 3 4 0 0
BITMAP
4350
2430
2330
2020
ENDCHAR
STARTCHAR n
ENCODING 110
SWIDTH 307 0
DWIDTH 2 0
BBX 3 4 0 0
BITMAP
3400
2210
2210
2210
ENDCHAR
STARTCHAR o
ENCODING 111
SWIDTH 309 0
DWIDTH 2 0
BBX 3 4 0 0
BITMAP
3400
3110
3110
2300
ENDCHAR
STARTCHAR p
ENCODING 112
SWIDTH 299 0
DWIDTH 2 0
BBX 3 6 0 -2
BITMAP
5300
3210
3200
4400
3000
2000
ENDCHAR
STARTCHAR q
ENCODING 113
SWIDTH 286 0
DWIDTH 2 0
BBX 3 6 0 -2
BITMAP
3500
3300
3300
2500
0300
0210
ENDCHAR
STARTCHAR r
ENCODING 114
SWIDTH 277 0
DWIDTH 2 0
BBX 2 4 0 0
BITMAP
34
20
20
20
ENDCHAR
STARTCHAR s
ENCODING 115
SWIDTH 257 0
DWIDTH 2 0
BBX 2 4 0 0
BITMAP
32
30
03
33
ENDCHAR
STARTCHAR t
ENCODING 116
SWIDTH 207 0
DWIDTH 2 0
BBX 2 5 0 0
BITMAP
20
41
30
30
21
ENDCHAR
STARTCHAR u
ENCODING 117
SWIDTH 307 0
DWIDTH 2 0
BBX 2 4 0 0
BITMAP
22
22
22
24
ENDCHAR
STARTCHAR v
ENCODING 118
SWIDTH 285 0
DWIDTH 2 0
BBX 3 4 0 0
BITMAP
2210
2300
2300
1300
ENDCHAR
STARTCHAR w
ENCODING 119
SWIDTH 396 0
DWIDTH 3 0
BBX 3 4 0 0
BITMAP
2020
3320
3520
4340
ENDCHAR
STARTCHAR x
ENCODING 120
SWIDTH 244 0
DWIDTH 2 0
BBX 2 4 0 0
BITMAP
33
22
33
33
ENDCHAR
STARTCHAR y
ENCODING 121
SWIDTH 285 0
DWIDTH 2 0
BBX 3 6 0 -2
BITMAP
2210
2300
2200
2300
0200
3000
ENDCHAR
STARTCHAR z
ENCODING 122
SWIDTH 233 0
DWIDTH 2 0
BBX 2 4 0 0
BITMAP
24
12
30
42
ENDCHAR
STARTCHAR braceleft
ENCODING 123
SWIDTH 306 0
DWIDTH 2 0
BBX 3 8 0 -1
BITMAP
0210
0200
0200
3400
3400
0200
0200
0210
ENDCHAR
STARTCHAR bar
ENCODING 124
SWIDTH 141 0
DWIDTH 1 0
BBX 1 7 0 -1
BITMAP
20
20
20
20
20
20
20
ENDCHAR
STARTCHAR braceright
ENCODING 125
SWIDTH 306 0
DWIDTH 2 0
BBX 3 8 0 -1
BITMAP
3000
1100
1100
1510
1510
1100
1100
3000
ENDCHAR
STARTCHAR asciitilde
ENCODING 126
SWIDTH 433 0
DWIDTH 3 0
BBX 2 1 1 2
BITMAP
12
ENDCHAR
STARTCHAR uni00A0
ENCODING 160
SWIDTH 240 0
DWIDTH 2 0
BBX 1 1 0 0
BITMAP
00
ENDCHAR
STARTCHAR exclamdown
ENCODING 161
SWIDTH 141 0
DWIDTH 1 0
BBX 1 6 0 -2
BITMAP
20
10
20
20
20
20
ENDCHAR
STARTCHAR cent
ENCODING 162
SWIDTH 275 0
DWIDTH 2 0
BBX 2 6 0 -1
BITMAP
01
14
34
32
36
02
ENDCHAR
STARTCHAR sterling
ENCODING 163
SWIDTH 331 0
DWIDTH 3 0
BBX 3 6 0 0
BITMAP
3310
3000
3000
3400
1200
5310
ENDCHAR
STARTCHAR currency
ENCODING 164
SWIDTH 506 0
DWIDTH 4 0
BBX 4 4 0 1
BITMAP
1001
2333
3003
2332
ENDCHAR
STARTCHAR yen
ENCODING 165
SWIDTH 370 0
DWIDTH 3 0
BBX 3 6 0 0
BITMAP
2030
2120
0500
1510
1510
0200
ENDCHAR
STARTCHAR brokenbar
ENCODING 166
SWIDTH 141 0
DWIDTH 1 0
BBX 1 7 0 -1
BITMAP
20
20
20
00
20
20
20
ENDCHAR
STARTCHAR section
ENCODING 167
SWIDTH 303 0
DWIDTH 2 0
BBX 3 8 0 -1
BITMAP
2300
3010
3100
6900
2100
0200
1120
2300
ENDCHAR
STARTCHAR dieresis
ENCODING 168
SWIDTH 241 0
DWIDTH 2 0
BBX 2 1 0 4
BITMAP
22
ENDCHAR
STARTCHAR copyright
ENCODING 169
SWIDTH 772 0
DWIDTH 6 0
BBX 6 7 0 0
BITMAP
013310
122222
302003
302003
302003
122222
013320
ENDCHAR
STARTCHAR ordfeminine
ENCODING 170
SWIDTH 231 0
DWIDTH 2 0
BBX 2 3 0 3
BITMAP
22
23
44
ENDCHAR
STARTCHAR guillemotleft
ENCODING 171
SWIDTH 403 0
DWIDTH 3 0
BBX 3 4 0 1
BITMAP
0110
1330
3300
0330
ENDCHAR
STARTCHAR logicalnot
ENCODING 172
SWIDTH 557 0
DWIDTH 4 0
BBX 5 2 0 1
BITMAP
233310
000020
ENDCHAR
STARTCHAR uni00AD
ENCODING 173
SWIDTH 286 0
DWIDTH 2 0
BBX 2 1 0 2
BITMAP
22
ENDCHAR
STARTCHAR registered
ENCODING 174
SWIDTH 772 0
DWIDTH 6 0
BBX 6 7 0 0
BITMAP
013310
120022
302203
304403
303303
121122
013320
ENDCHAR
STARTCHAR macron
ENCODING 175
SWIDTH 266 0
DWIDTH 2 0
BBX 2 1 0 4
BITMAP
12
ENDCHAR
STARTCHAR degree
ENCODING 176
SWIDTH 350 0
DWIDTH 3 0
BBX 3 3 0 3
BITMAP
1310
3030
1310
ENDCHAR
STARTCHAR plusminus
ENCODING 177
SWIDTH 577 0
DWIDTH 5 0
BBX 4 4 0 0
BITMAP
0020
1353
0030
1333
ENDCHAR
STARTCHAR uni00B2
ENCODING 178
SWIDTH 207 0
DWIDTH 2 0
BBX 2 3 0 3
BITMAP
22
12
41
ENDCHAR
STARTCHAR uni00B3
ENCODING 179
SWIDTH 214 0
DWIDTH 2 0
BBX 2 3 0 3
BITMAP
22
12
22
ENDCHAR
STARTCHAR acute
ENCODING 180
SWIDTH 201 0
DWIDTH 2 0
BBX 1 1 0 4
BITMAP
20
ENDCHAR
STARTCHAR uni00B5
ENCODING 181
SWIDTH 335 0
DWIDTH 3 0
BBX 3 6 0 -2
BITMAP
2210
2210
2210
3420
2000
2000
ENDCHAR
STARTCHAR paragraph
ENCODING 182
SWIDTH 471 0
DWIDTH 4 0
BBX 4 6 0 0
BITMAP
3E72
7F72
3F72
0032
0032
0022
ENDCHAR
STARTCHAR periodcentered
ENCODING 183
SWIDTH 181 0
DWIDTH 1 0
BBX 1 1 0 2
BITMAP
20
ENDCHAR
STARTCHAR cedilla
ENCODING 184
SWIDTH 232 0
DWIDTH 2 0
BBX 2 2 0 -2
BITMAP
21
11
ENDCHAR
STARTCHAR uni00B9
ENCODING 185
SWIDTH 176 0
DWIDTH 1 0
BBX 2 3 0 3
BITMAP
40
30
41
ENDCHAR
STARTCHAR ordmasculine
ENCODING 186
SWIDTH 201 0
DWIDTH 2 0
BBX 2 3 0 3
BITMAP
32
22
32
ENDCHAR
STARTCHAR guillemotright
ENCODING 187
SWIDTH 403 0
DWIDTH 3 0
BBX 3 4 0 0
BITMAP
3310
0330
2320
1100
ENDCHAR
STARTCHAR onequarter
ENCODING 188
SWIDTH 527 0
DWIDTH 4 0
BBX 4 6 0 0
BITMAP
4003
2021
3230
0222
0332
1234
ENDCHAR
STARTCHAR onehalf
ENCODING 189
SWIDTH 540 0
DWIDTH 4 0
BBX 4 6 0 0
BITMAP
4003
2021
3230
0224
0303
1224
ENDCHAR
STARTCHAR threequarters
ENCODING 190
SWIDTH 517 0
DWIDTH 4 0
BBX 4 6 0 0
BITMAP
2203
1221
2230
0213
0322
1224
ENDCHAR
STARTCHAR questiondown
ENCODING 191
SWIDTH 300 0
DWIDTH 2 0
BBX 3 6 0 -2
BITMAP
0200
0100
0300
1200
3000
3310
ENDCHAR
STARTCHAR Agrave
ENCODING 192
SWIDTH 414 0
DWIDTH 3 0
BBX 4 7 0 0
BITMAP
0200
0500
0410
1220
3330
2020
2011
ENDCHAR
STARTCHAR Aacute
ENCODING 193
SWIDTH 414 0
DWIDTH 3 0
BBX 4 7 0 0
BITMAP
0110
0500
0410
1220
3330
2020
2011
ENDCHAR
STARTCHAR Acircumflex
ENCODING 194
SWIDTH 414 0
DWIDTH 3 0
BBX 4 7 0 0
BITMAP
0300
0500
0410
1220
3330
2020
2011
ENDCHAR
STARTCHAR Atilde
ENCODING 195
SWIDTH 414 0
DWIDTH 3 0
BBX 4 7 0 0
BITMAP
0110
0500
0410
1220
3330
2020
2011
ENDCHAR
STARTCHAR Adieresis
ENCODING 196
SWIDTH 414 0
DWIDTH 3 0
BBX 4 7 0 0
BITMAP
0210
0500
0410
1220
3330
2020
2011
ENDCHAR
STARTCHAR Aring
ENCODING 197
SWIDTH 414 0
DWIDTH 3 0
BBX 4 8 0 0
BITMAP
0300
0300
0500
0410
1220
3330
2020
2011
ENDCHAR
STARTCHAR AE
ENCODING 198
SWIDTH 545 0
DWIDTH 4 0
BBX 4 6 0 0
BITMAP
0053
0230
0242
0430
2020
2033
ENDCHAR
STARTCHAR Ccedilla
ENCODING 199
SWIDTH 366 0
DWIDTH 3 0
BBX 3 8 0 -2
BITMAP
1310
3000
3000
3000
3000
1320
0210
0110
ENDCHAR
STARTCHAR Egrave
ENCODING 200
SWIDTH 309 0
DWIDTH 2 0
BBX 2 7 0 0
BITMAP
12
33
20
33
20
20
33
ENDCHAR
STARTCHAR Eacute
ENCODING 201
SWIDTH 309 0
DWIDTH 2 0
BBX 2 7 0 0
BITMAP
02
33
20
33
20
20
33
ENDCHAR
STARTCHAR Ecircumflex
ENCODING 202
SWIDTH 309 0
DWIDTH 2 0
BBX 2 7 0 0
BITMAP
03
43
20
33
20
20
33
ENDCHAR
STARTCHAR Edieresis
ENCODING 203
SWIDTH 309 0
DWIDTH 2 0
BBX 2 7 0 0
BITMAP
12
33
20
33
20
20
33
ENDCHAR
STARTCHAR Igrave
ENCODING 204
SWIDTH 141 0
DWIDTH 1 0
BBX 1 7 0 0
BITMAP
20
20
20
20
20
20
20
ENDCHAR
STARTCHAR Iacute
ENCODING 205
SWIDTH 141 0
DWIDTH 1 0
BBX 1 7 0 0
BITMAP
20
20
20
20
20
20
20
ENDCHAR
STARTCHAR Icircumflex
ENCODING 206
SWIDTH 141 0
DWIDTH 1 0
BBX 1 7 0 0
BITMAP
30
30
20
20
20
20
20
ENDCHAR
STARTCHAR Idieresis
ENCODING 207
SWIDTH 141 0
DWIDTH 1 0
BBX 1 7 0 0
BITMAP
40
20
20
20
20
20
20
ENDCHAR
STARTCHAR Eth
ENCODING 208
SWIDTH 396 0
DWIDTH 3 0
BBX 3 6 0 0
BITMAP
3320
2030
2030
4130
2030
3320
ENDCHAR
STARTCHAR Ntilde
ENCODING 209
SWIDTH 422 0
DWIDTH 3 0
BBX 3 7 0 0
BITMAP
0110
4020
3220
2320
2230
2050
2040
ENDCHAR
STARTCHAR Ograve
ENCODING 210
SWIDTH 446 0
DWIDTH 4 0
BBX 4 7 0 0
BITMAP
0200
1330
3011
3003
3003
3011
1330
ENDCHAR
STARTCHAR Oacute
ENCODING 211
SWIDTH 446 0
DWIDTH 4 0
BBX 4 7 0 0
BITMAP
0110
1330
3011
3003
3003
3011
1330
ENDCHAR
STARTCHAR Ocircumflex
ENCODING 212
SWIDTH 446 0
DWIDTH 4 0
BBX 4 7 0 0
BITMAP
0210
1330
3011
3003
3003
3011
1330
ENDCHAR
STARTCHAR Otilde
ENCODING 213
SWIDTH 446 0
DWIDTH 4 0
BBX 4 7 0 0
BITMAP
0110
1330
3011
3003
3003
3011
1330
ENDCHAR
STARTCHAR Odieresis
ENCODING 214
SWIDTH 446 0
DWIDTH 4 0
BBX 4 7 0 0
BITMAP
0220
1330
3011
3003
3003
3011
1330
ENDCHAR
STARTCHAR multiply
ENCODING 215
SWIDTH 445 0
DWIDTH 4 0
BBX 4 4 0 0
BITMAP
0001
3030
0600
2130
ENDCHAR
STARTCHAR Oslash
ENCODING 216
SWIDTH 446 0
DWIDTH 4 0
BBX 4 6 0 0
BITMAP
1350
3041
3113
3303
3211
4330
ENDCHAR
STARTCHAR Ugrave
ENCODING 217
SWIDTH 412 0
DWIDTH 3 0
BBX 3 7 0 0
BITMAP
0200
2020
2020
2020
2020
2020
2230
ENDCHAR
STARTCHAR Uacute
ENCODING 218
SWIDTH 412 0
DWIDTH 3 0
BBX 3 7 0 0
BITMAP
0110
2020
2020
2020
2020
2020
2230
ENDCHAR
STARTCHAR Ucircumflex
ENCODING 219
SWIDTH 412 0
DWIDTH 3 0
BBX 3 7 0 0
BITMAP
0300
2030
2020
2020
2020
2020
2230
ENDCHAR
STARTCHAR Udieresis
ENCODING 220
SWIDTH 412 0
DWIDTH 3 0
BBX 3 7 0 0
BITMAP
0310
2020
2020
2020
2020
2020
2230
ENDCHAR
STARTCHAR Yacute
ENCODING 221
SWIDTH 370 0
DWIDTH 3 0
BBX 3 7 0 0
BITMAP
0200
3030
3030
0500
0300
0300
0200
ENDCHAR
STARTCHAR Thorn
ENCODING 222
SWIDTH 341 0
DWIDTH 3 0
BBX 3 6 0 0
BITMAP
2000
3310
2030
2030
3310
2000
ENDCHAR
STARTCHAR germandbls
ENCODING 223
SWIDTH 327 0
DWIDTH 3 0
BBX 3 6 0 0
BITMAP
2300
2200
3500
3510
2020
3300
ENDCHAR
STARTCHAR agrave
ENCODING 224
SWIDTH 315 0
DWIDTH 3 0
BBX 3 5 0 0
BITMAP
1200
2300
0300
3300
3510
ENDCHAR
STARTCHAR aacute
ENCODING 225
SWIDTH 315 0
DWIDTH 3 0
BBX 3 5 0 0
BITMAP
0200
2300
0300
3300
3510
ENDCHAR
STARTCHAR acircumflex
ENCODING 226
SWIDTH 315 0
DWIDTH 3 0
BBX 3 5 0 0
BITMAP
2400
2300
0300
3300
3510
ENDCHAR
STARTCHAR atilde
ENCODING 227
SWIDTH 315 0
DWIDTH 3 0
BBX 3 5 0 0
BITMAP
0100
2300
0300
3300
3510
ENDCHAR
STARTCHAR adieresis
ENCODING 228
SWIDTH 315 0
DWIDTH 3 0
BBX 3 5 0 0
BITMAP
2200
2300
0300
3300
3510
ENDCHAR
STARTCHAR aring
ENCODING 229
SWIDTH 315 0
DWIDTH 3 0
BBX 3 6 0 0
BITMAP
1200
1200
2300
0300
3300
3510
ENDCHAR
STARTCHAR ae
ENCODING 230
SWIDTH 450 0
DWIDTH 4 0
BBX 4 4 0 0
BITMAP
2432
1522
3300
3432
ENDCHAR
STARTCHAR ccedilla
ENCODING 231
SWIDTH 275 0
DWIDTH 2 0
BBX 2 6 0 -2
BITMAP
33
30
30
23
03
02
ENDCHAR
STARTCHAR egrave
ENCODING 232
SWIDTH 285 0
DWIDTH 2 0
BBX 2 5 0 0
BITMAP
11
23
43
30
33
ENDCHAR
STARTCHAR eacute
ENCODING 233
SWIDTH 285 0
DWIDTH 2 0
BBX 2 5 0 0
BITMAP
02
23
43
30
33
ENDCHAR
STARTCHAR ecircumflex
ENCODING 234
SWIDTH 285 0
DWIDTH 2 0
BBX 2 5 0 0
BITMAP
24
23
43
30
33
ENDCHAR
STARTCHAR edieresis
ENCODING 235
SWIDTH 285 0
DWIDTH 2 0
BBX 2 5 0 0
BITMAP
22
23
43
30
33
ENDCHAR
STARTCHAR igrave
ENCODING 236
SWIDTH 141 0
DWIDTH 1 0
BBX 1 5 0 0
BITMAP
20
20
20
20
20
ENDCHAR
STARTCHAR iacute
ENCODING 237
SWIDTH 141 0
DWIDTH 1 0
BBX 1 5 0 0
BITMAP
20
20
20
20
20
ENDCHAR
STARTCHAR icircumflex
ENCODING 238
SWIDTH 141 0
DWIDTH 1 0
BBX 2 5 0 0
BITMAP
41
20
20
20
20
ENDCHAR
STARTCHAR idieresis
ENCODING 239
SWIDTH 141 0
DWIDTH 1 0
BBX 2 5 0 0
BITMAP
41
20
20
20
20
ENDCHAR
STARTCHAR eth
ENCODING 240
SWIDTH 319 0
DWIDTH 3 0
BBX 3 6 0 0
BITMAP
2300
1400
2410
3020
3020
2300
ENDCHAR
STARTCHAR ntilde
ENCODING 241
SWIDTH 307 0
DWIDTH 2 0
BBX 3 5 0 0
BITMAP
0100
3400
2210
2210
2210
ENDCHAR
STARTCHAR ograve
ENCODING 242
SWIDTH 309 0
DWIDTH 2 0
BBX 3 5 0 0
BITMAP
1200
3400
3110
3110
2300
ENDCHAR
STARTCHAR oacute
ENCODING 243
SWIDTH 309 0
DWIDTH 2 0
BBX 3 5 0 0
BITMAP
0200
3400
3110
3110
2300
ENDCHAR
STARTCHAR ocircumflex
ENCODING 244
SWIDTH 309 0
DWIDTH 2 0
BBX 3 5 0 0
BITMAP
1400
3400
3110
3110
2300
ENDCHAR
STARTCHAR otilde
ENCODING 245
SWIDTH 309 0
DWIDTH 2 0
BBX 3 5 0 0
BITMAP
0100
3400
3110
3110
2300
ENDCHAR
STARTCHAR odieresis
ENCODING 246
SWIDTH 309 0
DWIDTH 2 0
BBX 3 5 0 0
BITMAP
2200
3400
3110
3110
2300
ENDCHAR
STARTCHAR divide
ENCODING 247
SWIDTH 577 0
DWIDTH 5 0
BBX 4 4 0 0
BITMAP
0020
0000
1333
0020
ENDCHAR
STARTCHAR oslash
ENCODING 248
SWIDTH 309 0
DWIDTH 2 0
BBX 3 4 0 0
BITMAP
3500
3420
4310
4300
ENDCHAR
STARTCHAR ugrave
ENCODING 249
SWIDTH 307 0
DWIDTH 2 0
BBX 2 5 0 0
BITMAP
12
22
22
22
24
ENDCHAR
STARTCHAR uacute
ENCODING 250
SWIDTH 307 0
DWIDTH 2 0
BBX 2 5 0 0
BITMAP
02
22
22
22
24
ENDCHAR
STARTCHAR ucircumflex
ENCODING 251
SWIDTH 307 0
DWIDTH 2 0
BBX 2 5 0 0
BITMAP
24
22
22
22
24
ENDCHAR
STARTCHAR udieresis
ENCODING 252
SWIDTH 307 0
DWIDTH 2 0
BBX 2 5 0 0
BITMAP
22
22
22
22
24
ENDCHAR
STARTCHAR yacute
ENCODING 253
SWIDTH 285 0
DWIDTH 2 0
BBX 3 7 0 -2
BITMAP
0200
2210
2300
2200
2300
0200
3000
ENDCHAR
STARTCHAR thorn
ENCODING 254
SWIDTH 299 0
DWIDTH 2 0
BBX 3 8 0 -2
BITMAP
2000
3000
5300
3210
3200
4400
3000
2000
ENDCHAR
STARTCHAR ydieresis
ENCODING 255
SWIDTH 285 0
DWIDTH 2 0
BBX 3 7 0 -2
BITMAP
2200
2210
2300
2200
2300
0200
3000
ENDCHAR
STARTCHAR dotlessi
ENCODING 305
SWIDTH 141 0
DWIDTH 1 0
BBX 1 4 0 0
BITMAP
20
20
20
20
ENDCHAR
STARTCHAR OE
ENCODING 338
SWIDTH 505 0
DWIDTH 4 0
BBX 4 6 0 0
BITMAP
2352
3030
3052
3030
3030
2352
ENDCHAR
STARTCHAR oe
ENCODING 339
SWIDTH 492 0
DWIDTH 4 0
BBX 4 4 0 0
BITMAP
3433
3153
3130
2332
ENDCHAR
STARTCHAR Wcircumflex
ENCODING 372
SWIDTH 534 0
DWIDTH 4 0
BBX 4 7 0 0
BITMAP
0120
2002
3002
2232
2132
2232
3214
ENDCHAR
STARTCHAR wcircumflex
ENCODING 373
SWIDTH 396 0
DWIDTH 3 0
BBX 3 5 0 0
BITMAP
0410
2020
3320
3520
4340
ENDCHAR
STARTCHAR Ycircumflex
ENCODING 374
SWIDTH 370 0
DWIDTH 3 0
BBX 3 7 0 0
BITMAP
0300
3130
3030
0500
0300
0300
0200
ENDCHAR
STARTCHAR ycircumflex
ENCODING 375
SWIDTH 285 0
DWIDTH 2 0
BBX 3 7 0 -2
BITMAP
2300
2210
2300
2200
2300
0200
3000
ENDCHAR
STARTCHAR Ydieresis
ENCODING 376
SWIDTH 370 0
DWIDTH 3 0
BBX 3 7 0 0
BITMAP
0400
3030
3030
0500
0300
0300
0200
ENDCHAR
STARTCHAR uni0237
ENCODING 567
SWIDTH 141 0
DWIDTH 1 0
BBX 2 6 -1 -2
BITMAP
02
02
02
02
02
12
ENDCHAR
STARTCHAR circumflex
ENCODING 710
SWIDTH 280 0
DWIDTH 2 0
BBX 2 1 0 4
BITMAP
23
ENDCHAR
STARTCHAR ring
ENCODING 730
SWIDTH 238 0
DWIDTH 2 0
BBX 2 2 0 4
BITMAP
21
21
ENDCHAR
STARTCHAR tilde
ENCODING 732
SWIDTH 301 0
DWIDTH 2 0
BBX 1 1 1 4
BITMAP
10
ENDCHAR
STARTCHAR gravecomb
ENCODING 768
SWIDTH 0 0
DWIDTH 0 0
BBX 1 1 0 4
BITMAP
20
ENDCHAR
STARTCHAR acutecomb
ENCODING 769
SWIDTH 0 0
DWIDTH 0 0
BBX 1 1 0 4
BITMAP
20
ENDCHAR
STARTCHAR uni0302
ENCODING 770
SWIDTH 0 0
DWIDTH 0 0
BBX 2 1 0 4
BITMAP
23
ENDCHAR
STARTCHAR tildecomb
ENCODING 771
SWIDTH 0 0
DWIDTH 0 0
BBX 1 1 1 4
BITMAP
10
ENDCHAR
STARTCHAR uni0307
ENCODING 775
SWIDTH 0 0
DWIDTH 0 0
BBX 1 1 0 4
BITMAP
20
ENDCHAR
STARTCHAR uni0308
ENCODING 776
SWIDTH 0 0
DWIDTH 0 0
BBX 2 1 0 4
BITMAP
22
ENDCHAR
STARTCHAR uni030A
ENCODING 778
SWIDTH 0 0
DWIDTH 0 0
BBX 2 2 0 4
BITMAP
21
21
ENDCHAR
STARTCHAR uni0327
ENCODING 807
SWIDTH 0 0
DWIDTH 0 0
BBX 2 2 0 -2
BITMAP
21
11
ENDCHAR
STARTCHAR Wgrave
ENCODING 7808
SWIDTH 534 0
DWIDTH 4 0
BBX 4 7 0 0
BITMAP
0110
2002
3002
2232
2132
2232
3214
ENDCHAR
STARTCHAR wgrave
ENCODING 7809
SWIDTH 396 0
DWIDTH 3 0
BBX 3 5 0 0
BITMAP
0200
2020
3320
3520
4340
ENDCHAR
STARTCHAR Wacute
ENCODING 7810
SWIDTH 534 0
DWIDTH 4 0
BBX 4 7 0 0
BITMAP
0020
2002
3002
2232
2132
2232
3214
ENDCHAR
STARTCHAR wacute
ENCODING 7811
SWIDTH 396 0
DWIDTH 3 0
BBX 3 5 0 0
BITMAP
0200
2020
3320
3520
4340
ENDCHAR
STARTCHAR Wdieresis
ENCODING 7812
SWIDTH 534 0
DWIDTH 4 0
BBX 4 7 0 0
BITMAP
0220
2002
3002
2232
2132
2232
3214
ENDCHAR
STARTCHAR wdieresis
ENCODING 7813
SWIDTH 396 0
DWIDTH 3 0
BBX 3 5 0 0
BITMAP
0310
2020
3320
3520
4340
ENDCHAR
STARTCHAR uni1E9E
ENCODING 7838
SWIDTH 375 0
DWIDTH 3 0
BBX 3 6 0 0
BITMAP
2320
2030
2430
2430
2020
3220
ENDCHAR
STARTCHAR Ygrave
ENCODING 7922
SWIDTH 370 0
DWIDTH 3 0
BBX 3 7 0 0
BITMAP
0200
3030
3030
0500
0300
0300
0200
ENDCHAR
STARTCHAR ygrave
ENCODING 7923
SWIDTH 285 0
DWIDTH 2 0
BBX 3 7 0 -2
BITMAP
1100
2210
2300
2200
2300
0200
3000
ENDCHAR
STARTCHAR endash
ENCODING 8211
SWIDTH 425 0
DWIDTH 3 0
BBX 3 1 0 1
BITMAP
2330
ENDCHAR
STARTCHAR emdash
ENCODING 8212
SWIDTH 770 0
DWIDTH 6 0
BBX 6 1 0 1
BITMAP
233332
ENDCHAR
STARTCHAR quoteleft
ENCODING 8216
SWIDTH 145 0
DWIDTH 1 0
BBX 1 2 0 4
BITMAP
30
10
ENDCHAR
STARTCHAR quoteright
ENCODING 8217
SWIDTH 145 0
DWIDTH 1 0
BBX 1 2 0 4
BITMAP
10
30
ENDCHAR
STARTCHAR quotesinglbase
ENCODING 8218
SWIDTH 145 0
DWIDTH 1 0
BBX 1 2 0 -1
BITMAP
10
30
ENDCHAR
STARTCHAR quotedblleft
ENCODING 8220
SWIDTH 219 0
DWIDTH 2 0
BBX 2 2 0 4
BITMAP
33
11
ENDCHAR
STARTCHAR quotedblright
ENCODING 8221
SWIDTH 219 0
DWIDTH 2 0
BBX 2 2 0 4
BITMAP
11
32
ENDCHAR
STARTCHAR quotedblbase
ENCODING 8222
SWIDTH 219 0
DWIDTH 2 0
BBX 2 2 0 -1
BITMAP
11
32
ENDCHAR
STARTCHAR bullet
ENCODING 8226
SWIDTH 355 0
DWIDTH 3 0
BBX 3 2 0 2
BITMAP
5E30
5E30
ENDCHAR
STARTCHAR ellipsis
ENCODING 8230
SWIDTH 651 0
DWIDTH 5 0
BBX 5 1 0 0
BITMAP
202020
ENDCHAR
STARTCHAR guilsinglleft
ENCODING 8249
SWIDTH 263 0
DWIDTH 2 0
BBX 2 4 0 1
BITMAP
01
12
30
03
ENDCHAR
STARTCHAR guilsinglright
ENCODING 8250
SWIDTH 263 0
DWIDTH 2 0
BBX 2 4 0 0
BITMAP
31
03
22
10
ENDCHAR
STARTCHAR fraction
ENCODING 8260
SWIDTH 152 0
DWIDTH 1 0
BBX 3 6 -1 0
BITMAP
0030
0030
0300
0300
2100
3000
ENDCHAR
STARTCHAR uni2074
ENCODING 8308
SWIDTH 247 0
DWIDTH 2 0
BBX 2 3 0 3
BITMAP
21
32
33
ENDCHAR
STARTCHAR Euro
ENCODING 8364
SWIDTH 391 0
DWIDTH 3 0
BBX 3 6 0 0
BITMAP
1320
3000
4200
4200
3000
1320
ENDCHAR
STARTCHAR trademark
ENCODING 8482
SWIDTH 506 0
DWIDTH 4 0
BBX 4 4 0 2
BITMAP
C966
2173
2173
1011
ENDCHAR
STARTCHAR minus
ENCODING 8722
SWIDTH 557 0
DWIDTH 4 0
BBX 5 1 0 2
BITMAP
9DDD20
ENDCHAR
STARTCHAR uni2215
ENCODING 8725
SWIDTH 259 0
DWIDTH 2 0
BBX 2 6 0 0
BITMAP
01
03
03
21
30
30
ENDCHAR
STARTCHAR .notdef
ENCODING -1
SWIDTH 500 0
DWIDTH 4 0
BBX 4 8 0 -2
BITMAP
5665
6006
6006
6006
6006
6006
6006
5665
ENDCHAR
STARTCHAR NULL
ENCODING -1
SWIDTH 600 0
DWIDTH 5 0
BBX 1 1 0 0
BITMAP
00
ENDCHAR
STARTCHAR acutecomb.case
ENCODING -1
SWIDTH 0 0
DWIDTH 0 0
BBX 1 1 0 6
BITMAP
20
ENDCHAR
STARTCHAR uni0302.case
ENCODING -1
SWIDTH 0 0
DWIDTH 0 0
BBX 2 1 0 6
BITMAP
22
ENDCHAR
STARTCHAR uni0308.case
ENCODING -1
SWIDTH 0 0
DWIDTH 0 0
BBX 2 1 0 6
BITMAP
22
ENDCHAR
STARTCHAR uni0307.case
ENCODING -1
SWIDTH 0 0
DWIDTH 0 0
BBX 1 1 0 6
BITMAP
20
ENDCHAR
STARTCHAR gravecomb.case
ENCODING -1
SWIDTH 0 0
DWIDTH 0 0
BBX 1 1 0 6
BITMAP
20
ENDCHAR
STARTCHAR uni030A.case
ENCODING -1
SWIDTH 0 0
DWIDTH 0 0
BBX 2 2 0 6
BITMAP
21
21
ENDCHAR
STARTCHAR tildecomb.case
ENCODING -1
SWIDTH 0 0
DWIDTH 0 0
BBX 1 1 1 6
BITMAP
20
ENDCHAR
ENDFONT
